<?xml version="1.0" standalone="no"?>
<!DOCTYPE svg PUBLIC "-//W3C//DTD SVG 20010904//EN"
 "http://www.w3.org/TR/2001/REC-SVG-20010904/DTD/svg10.dtd">
<svg version="1.0" xmlns="http://www.w3.org/2000/svg"
 width="114.000000pt" height="114.000000pt" viewBox="0 0 114.000000 114.000000"
 preserveAspectRatio="xMidYMid meet">
<metadata>
Created by potrace 1.16, written by Peter Selinger 2001-2019
</metadata>
<g transform="translate(0.000000,114.000000) scale(0.100000,-0.100000)"
fill="#000000" stroke="none">
<path d="M165 1116 c-64 -29 -112 -77 -141 -141 -24 -49 -24 -54 -24 -405 0
-351 0 -356 24 -405 29 -64 77 -112 141 -141 49 -24 54 -24 405 -24 351 0 356
0 405 24 64 29 112 77 141 141 24 49 24 54 24 405 0 351 0 356 -24 405 -29 64
-77 112 -141 141 -49 24 -54 24 -405 24 -351 0 -356 0 -405 -24z m255 -346 l0
-120 145 0 145 0 0 120 0 120 45 0 45 0 0 -295 0 -295 -45 0 -45 0 0 135 0
135 -145 0 -145 0 0 -135 0 -135 -40 0 -40 0 0 295 0 295 40 0 40 0 0 -120z"/>
</g>
</svg>
